<svg xmlns="http://www.w3.org/2000/svg" viewBox="0 0 461.77 395"><defs><style>.cls-1{isolation:isolate;}.cls-2{fill:#b2ebf2;}.cls-2,.cls-3{opacity:0.5;}.cls-11,.cls-2,.cls-3{mix-blend-mode:multiply;}.cls-3{fill:#78909c;}.cls-4{fill:#c27e3b;}.cls-5{fill:#fff;}.cls-6{fill:#eaeaea;}.cls-7{fill:#d1d1d1;}.cls-8{fill:#005e7c;}.cls-9{fill:#047c9d;}.cls-10{fill:#143358;}.cls-11{fill:#b3b3b3;opacity:0.3;}.cls-12{fill:#ffa07f;}.cls-13{fill:#ff7d6f;}.cls-14{fill:#ffd39c;}.cls-15{fill:#ffbf90;}.cls-16{fill:#cf4a57;}.cls-17{fill:#fc5b68;}.cls-18{fill:#161818;}.cls-19{fill:#2c2c2c;}.cls-20{fill:#474747;}.cls-21{fill:#691205;}.cls-22{fill:#4e0601;}.cls-23{fill:#df2b2b;}.cls-24{fill:#be1b1b;}.cls-25{fill:#171228;}.cls-26{fill:#006d93;}.cls-27{fill:#b0b0b0;}.cls-28{fill:#cd4a57;}.cls-29{fill:#090909;}</style></defs><g class="cls-1"><g id="OBJECTS"><path class="cls-2" d="M476.78,335l0-1.35-.07-1.27c0-.85-.12-1.63-.19-2.43s-.18-1.56-.27-2.33c-.41-3-.91-5.95-1.5-8.78-1.15-5.67-2.55-11.08-4-16.4-3-10.61-6.32-20.75-9.85-30.54a569,569,0,0,0-23-54.34,486.66,486.66,0,0,0-27.14-48.81c-13.07-26.74-29.34-49.53-49.23-63.61a67.17,67.17,0,0,0-16.06-8.31c-1.57-1-3.1-2-4.56-2.85A83,83,0,0,0,326,86.86L320.47,85a13.67,13.67,0,0,1-2.6-1.21h0c-.44-.25-.94-.55-1.5-.83l-1.9-.84-2.27-1-2.67-.87c-7.56-2.48-19.61-4.07-34.67-2a135.55,135.55,0,0,0-24.46,5.81A210.59,210.59,0,0,0,223,95.56c-19,9.57-39.39,22.79-60.13,39.49a496,496,0,0,0-48.54,44.86c-40,31.48-73.09,66.79-89.09,97.71-4.12,7.95-1.62,16.24,6,24.6l0,.08c-1.66,4.37-3.24,8.81-4.56,13.42l-.51,1.72-.25.87c-.09.34-.19.81-.29,1.21a21.21,21.21,0,0,0-.46,2.57l-.16,1.32c0,.45,0,.91-.05,1.36a25.76,25.76,0,0,0,2,10.64,31.1,31.1,0,0,0,5.27,8.41,45.62,45.62,0,0,0,6.42,6,76,76,0,0,0,13.62,8.2,169.64,169.64,0,0,0,28.05,10c18.92,5.12,38.25,8.34,57.87,10.84s39.55,4.1,59.71,5.16c20.55,1.08,40.85,1.51,60.84,1.45,96.54,19.18,187.69,25,195,3.07,1.62-4.84,2.32-14.82,2-28.3a71.57,71.57,0,0,0,7.13-3.8,38.85,38.85,0,0,0,8.05-6.39,24.86,24.86,0,0,0,3.68-5.11,19.73,19.73,0,0,0,2.14-6.91l.11-1.65C476.79,335.91,476.78,335.5,476.78,335ZM140.63,358.58c-19-2.35-37.63-5.38-55.15-10A152.31,152.31,0,0,1,60.75,340a58,58,0,0,1-10.09-5.88c-2.82-2.14-4.89-4.5-5.63-6.32a6.22,6.22,0,0,1-.54-2.57c0-.11,0-.22,0-.34s0-.23,0-.35a3.53,3.53,0,0,1,.12-.75c0-.15,0-.23.09-.43l.21-.76.42-1.51c.53-1.94,1.13-3.87,1.76-5.79,23.84,15.83,63.37,31.41,108.67,44.94Q148.18,359.5,140.63,358.58Zm56.22-232.15a320.83,320.83,0,0,1,31.53-20.7,221.85,221.85,0,0,1,25.38-12.41,142,142,0,0,1,22.5-7.14c13.83-3.1,25-2.91,32.37-1.85l2.63.34,2.29.42,2,.32,1.61.33h0a9.86,9.86,0,0,1,2.79,1c1.84,1,3.65,2,4.77,2.71,1.43.94,3.19,2.1,5.21,3.5C293.09,87.15,244.66,101.63,196.85,126.43ZM458.74,334.9c0,.23,0,.51,0,.67l0,.28V336a4.07,4.07,0,0,1-.18.44,8.49,8.49,0,0,1-.94,1.15,18.36,18.36,0,0,1-3.08,2.43,566.33,566.33,0,0,0-8.49-60.1c2.86,8.76,5.57,17.77,7.92,27,1.28,5.06,2.48,10.2,3.4,15.3.47,2.56.85,5.1,1.13,7.55.07.62.14,1.23.17,1.81s.1,1.2.11,1.73l0,.83Z" transform="translate(-23.22 -56.67)"/><path class="cls-2" d="M46.33,145.33c-11.58,0-11.6,18,0,18S57.93,145.33,46.33,145.33Z" transform="translate(-23.22 -56.67)"/><path class="cls-2" d="M35,191.33c-9,0-9,14,0,14S44,191.33,35,191.33Z" transform="translate(-23.22 -56.67)"/><path class="cls-2" d="M171,63.17c-10.94,0-11,17,0,17S182,63.17,171,63.17Z" transform="translate(-23.22 -56.67)"/><path class="cls-2" d="M476.78,239.21c-10.94,0-11,17,0,17S487.74,239.21,476.78,239.21Z" transform="translate(-23.22 -56.67)"/><path class="cls-2" d="M169.67,99.17c-8.37,0-8.38,13,0,13S178.05,99.17,169.67,99.17Z" transform="translate(-23.22 -56.67)"/><path class="cls-2" d="M446,56.67c-8.37,0-8.38,13,0,13S454.37,56.67,446,56.67Z" transform="translate(-23.22 -56.67)"/><path class="cls-2" d="M465,206.75c-8.37,0-8.38,13,0,13S473.41,206.75,465,206.75Z" transform="translate(-23.22 -56.67)"/><path class="cls-2" d="M458.75,95.08c-5.25,0-5.26,8.17,0,8.17S464,95.08,458.75,95.08Z" transform="translate(-23.22 -56.67)"/><path class="cls-3" d="M474.33,442.89s-96.55,8.78-215.66,8.78S43,442.89,43,442.89s96.56-8.78,215.67-8.78S474.33,442.89,474.33,442.89Z" transform="translate(-23.22 -56.67)"/><path class="cls-4" d="M443.43,103.05l.2,323.38a15,15,0,0,1-15,15l-231.06.14a15,15,0,0,1-15-15l-.2-323.38a15,15,0,0,1,15-15l231.05-.14A15,15,0,0,1,443.43,103.05Z" transform="translate(-23.22 -56.67)"/><polygon class="cls-5" points="399.75 59.37 399.89 292.26 357.32 333.53 179.86 333.64 179.69 59.5 399.75 59.37"/><polygon class="cls-6" points="399.89 292.26 357.32 333.53 357.3 292.29 399.89 292.26"/><rect class="cls-7" x="201.01" y="76.07" width="177.46" height="23.29"/><path class="cls-8" d="M365.15,82.05V76.4a15.31,15.31,0,0,0-15.31-15.3l-73.86,0a15.29,15.29,0,0,0-15.29,15.31v5.66l-28.09,0,0,40.58,160.65-.09,0-40.59Z" transform="translate(-23.22 -56.67)"/><rect class="cls-9" x="209.4" y="53.45" width="160.65" height="12.56"/><path class="cls-10" d="M342,80.15l-58.23,0a3.74,3.74,0,0,1-3.75-3.74h0a3.74,3.74,0,0,1,3.74-3.75l58.23,0a3.74,3.74,0,0,1,3.75,3.74h0A3.74,3.74,0,0,1,342,80.15Z" transform="translate(-23.22 -56.67)"/><path class="cls-11" d="M437.81,438.27a14.8,14.8,0,0,1-9.14,3.14l-231.06.14a15,15,0,0,1-15-15l-.2-323.38a15,15,0,0,1,15-15l18.66,0c-2.67,6.23-5.52,12.12-6.82,16.6A269.6,269.6,0,0,0,295.55,388c21.41,17.83,45.95,32.45,72.89,39.6,22,5.84,45,6.56,67.39,10.34C436.49,438,437.15,438.13,437.81,438.27Z" transform="translate(-23.22 -56.67)"/><polygon class="cls-12" points="108.62 70.51 92.39 70.51 92.79 61.82 93.25 52.01 93.25 51.88 107.67 51.88 108.17 61.8 108.62 70.51"/><path class="cls-13" d="M131.39,118.47a15.29,15.29,0,0,1-15.38,0l.46-9.81v-.13h14.4Z" transform="translate(-23.22 -56.67)"/><path class="cls-14" d="M117.81,127.18c-.33-3-.57-15.4-.72-18.63h-.61l-.87,18.63Z" transform="translate(-23.22 -56.67)"/><path class="cls-14" d="M131.84,127.18l-1-18.63h-.77c.15,3.26.27,15.73.34,18.63Z" transform="translate(-23.22 -56.67)"/><path class="cls-15" d="M110.48,105c-2.77-.27-4.79-2.36-5.87-4.1a9.27,9.27,0,0,1-.58-1.11c-.79-1.82-1-8.14,1-9.61,1.42-1,2.46.47,3,1.45h0a6.74,6.74,0,0,1,.32.74Z" transform="translate(-23.22 -56.67)"/><path class="cls-12" d="M110.48,105c-2.77-.27-4.79-2.36-5.87-4.1q-.14-.27-.24-.51c-.79-1.83-1-8.14,1-9.61,1.15-.83,2,0,2.62.85h0a6.74,6.74,0,0,1,.32.74Z" transform="translate(-23.22 -56.67)"/><path class="cls-13" d="M104.4,95.22a3.45,3.45,0,0,0,.1,1.53c.55,2.12,2.22,3.74,3.82,5.24a6.53,6.53,0,0,1-.56-3.32c0-.39.1-.78.1-1.18C107.87,95.9,105,92.24,104.4,95.22Z" transform="translate(-23.22 -56.67)"/><path class="cls-16" d="M109.12,102.59l-.09-.06c-.06,0-.15-.1-.26-.2a4.19,4.19,0,0,1-.79-.9,4.72,4.72,0,0,1-.64-1.68,4.34,4.34,0,0,1,.2-2.23,2.33,2.33,0,0,1,.11-.28l0-.07h0l0-.06,0-.12-.12-.24a10.22,10.22,0,0,0-1-1.62,5.46,5.46,0,0,0-.5-.6,1.06,1.06,0,0,0-.52-.29.76.76,0,0,0-.44.09.52.52,0,0,0-.2.23.45.45,0,0,0,0,.11.36.36,0,0,1,0-.12.61.61,0,0,1,.16-.29.8.8,0,0,1,.51-.2,1.24,1.24,0,0,1,.68.25,4.7,4.7,0,0,1,.63.57,7.84,7.84,0,0,1,.61.73,8.5,8.5,0,0,1,.57.89l.12.25.07.13.08.17,0,.13a1.12,1.12,0,0,1,0,.13l-.08.18a.87.87,0,0,0-.1.24,4.56,4.56,0,0,0-.26,2,5,5,0,0,0,.42,1.6,4.59,4.59,0,0,0,.6,1c.09.11.17.18.21.24Z" transform="translate(-23.22 -56.67)"/><path class="cls-15" d="M136.87,105c2.77-.27,4.79-2.36,5.87-4.1a9.27,9.27,0,0,0,.58-1.11c.79-1.82,1-8.14-1-9.61-1.42-1-2.46.47-3,1.45h0a6.74,6.74,0,0,0-.32.74Z" transform="translate(-23.22 -56.67)"/><path class="cls-12" d="M136.87,105c2.77-.27,4.79-2.36,5.87-4.1q.13-.27.24-.51c.79-1.83,1-8.14-1-9.61-1.16-.83-2.06,0-2.63.85h0a6.74,6.74,0,0,0-.32.74Z" transform="translate(-23.22 -56.67)"/><path class="cls-13" d="M143,95.22a3.45,3.45,0,0,1-.1,1.53c-.55,2.12-2.22,3.74-3.82,5.24a6.53,6.53,0,0,0,.56-3.32c0-.39-.1-.78-.1-1.18C139.48,95.9,142.34,92.24,143,95.22Z" transform="translate(-23.22 -56.67)"/><path class="cls-16" d="M138.23,102.59l.09-.06c.06,0,.15-.1.26-.2a4.19,4.19,0,0,0,.79-.9,4.54,4.54,0,0,0,.64-1.68,4.34,4.34,0,0,0-.2-2.23,2.33,2.33,0,0,0-.11-.28l0-.07s0,0,0,0h0l0-.06.05-.12.12-.24a10.22,10.22,0,0,1,1-1.62,5.46,5.46,0,0,1,.5-.6,1.06,1.06,0,0,1,.52-.29.76.76,0,0,1,.44.09.52.52,0,0,1,.2.23c0,.07,0,.11,0,.11a1.09,1.09,0,0,0,0-.12.53.53,0,0,0-.16-.29.8.8,0,0,0-.51-.2,1.24,1.24,0,0,0-.68.25,4.11,4.11,0,0,0-.62.57,6.58,6.58,0,0,0-.62.73,8.5,8.5,0,0,0-.57.89l-.12.25-.07.13-.08.17,0,.13a1.12,1.12,0,0,0,0,.13l.08.18a.87.87,0,0,1,.1.24,4.56,4.56,0,0,1,.26,2,5,5,0,0,1-.42,1.6,4.59,4.59,0,0,1-.6,1c-.09.11-.17.18-.21.24Z" transform="translate(-23.22 -56.67)"/><path class="cls-12" d="M139.33,95.44s-2.69,13.68-5.72,17.06-10.06,4-10.06,4-7-.64-10.06-4-5.3-17.1-5.3-17.1a18.42,18.42,0,0,1-.75-4v0a54.77,54.77,0,0,1,0-8s.15-8,4-11.33c1.65-1.45,4.11-1.65,6.39-1.41a56.37,56.37,0,0,0,11.47,0c2.27-.24,4.73,0,6.38,1.41,1.94,1.7,2.94,4.56,3.46,7a25.74,25.74,0,0,1,.55,4.35S140.72,91.38,139.33,95.44Z" transform="translate(-23.22 -56.67)"/><path class="cls-14" d="M133.4,111.12c-3.83,6.5-15,5-19.31.69-6.8-10.35-6.47-24.61-4.13-37.94-2.42,3.79-2.53,9.57-2.53,9.57s-.63,7.9.76,12c0,0,2.27,13.72,5.3,17.1s10.06,4,10.06,4,7-.64,10.07-4,5.71-17.06,5.71-17.06c1-2.79.76-7.41.55-10C139.1,94,138.6,102.31,133.4,111.12Z" transform="translate(-23.22 -56.67)"/><path class="cls-13" d="M121.7,98.39c.1,0,.2,0,.38,0a7.73,7.73,0,0,0,1.36.12,7,7,0,0,0,1.81-.38c.77-.25.47.3.25.83a7.16,7.16,0,0,1-.92,1.67,7.4,7.4,0,0,1-3.45-1,3.46,3.46,0,0,1,.45-1.16A.31.31,0,0,1,121.7,98.39Z" transform="translate(-23.22 -56.67)"/><path class="cls-17" d="M122.72,88.28a14.28,14.28,0,0,1,.41,2.1,16.46,16.46,0,0,1-.89,7.92c-.08.21-.15.41-.23.6l-.12.28-.06.09s0,.06,0,.08l.08.07c.14.1.27.2.4.28a8.43,8.43,0,0,0,1.35.7l.53.19a3.46,3.46,0,0,1-.57,0,5.92,5.92,0,0,1-1.54-.39l-.49-.21-.38-.22-.2-.12c-.06,0,0-.07,0-.1l0-.11c0-.15.1-.31.14-.47l.08-.28.15-.6c.2-.83.4-1.73.57-2.69a46.12,46.12,0,0,0,.64-5C122.7,89.1,122.72,88.28,122.72,88.28Z" transform="translate(-23.22 -56.67)"/><path class="cls-18" d="M118.44,91.22s-.08-.11-.24-.29-.38-.44-.68-.73l-.09-.08A6.79,6.79,0,0,0,115,88.54a4.16,4.16,0,0,0-1-.22,4.37,4.37,0,0,0-2.76.7l-.22.15-.08.06,0-.08c0-.06.08-.15.15-.25a3.66,3.66,0,0,1,.72-.77,3.88,3.88,0,0,1,.64-.39,4.05,4.05,0,0,1,.83-.29,4.48,4.48,0,0,1,1-.08h.12a4.3,4.3,0,0,1,.92.19A4.58,4.58,0,0,1,117,88.64c.1.1.2.2.29.31a5,5,0,0,1,.65,1,6.26,6.26,0,0,1,.41.95C118.41,91.09,118.44,91.22,118.44,91.22Z" transform="translate(-23.22 -56.67)"/><path class="cls-18" d="M117.45,90.66c0,2.27-.85,4.12-1.91,4.12s-1.91-1.85-1.91-4.12a7.85,7.85,0,0,1,.34-2.34,4.83,4.83,0,0,1,.42-.94,4.3,4.3,0,0,1,.92.19A4.58,4.58,0,0,1,117,88.64c.1.1.2.2.29.31a8.11,8.11,0,0,1,.15,1.17C117.44,90.3,117.45,90.48,117.45,90.66Z" transform="translate(-23.22 -56.67)"/><polygon class="cls-5" points="88.45 31.72 87.96 34.07 91.88 33.63 88.45 31.72"/><path class="cls-17" d="M117.89,88.3l0-.06-.14-.16a4,4,0,0,0-.54-.51,4.5,4.5,0,0,0-2.17-.95,4.45,4.45,0,0,0-2.35.34,3.82,3.82,0,0,0-.66.35l-.17.12-.06,0,0-.06a1.55,1.55,0,0,1,.14-.15,3,3,0,0,1,.59-.5,3.67,3.67,0,0,1,1.07-.48,3.63,3.63,0,0,1,1.45-.1,3.72,3.72,0,0,1,1.37.48,3.87,3.87,0,0,1,.9.74,3.52,3.52,0,0,1,.44.64c0,.08.07.15.1.19Z" transform="translate(-23.22 -56.67)"/><path class="cls-18" d="M128.74,91.22s.08-.11.24-.29.38-.44.68-.73l.09-.08a6.79,6.79,0,0,1,2.45-1.58,4,4,0,0,1,1-.22,4.3,4.3,0,0,1,1.89.26A4.62,4.62,0,0,1,136,89l.22.15.08.06-.05-.08a1.75,1.75,0,0,0-.14-.25,3.77,3.77,0,0,0-.73-.77,3.4,3.4,0,0,0-.63-.39,4.05,4.05,0,0,0-.83-.29,4.48,4.48,0,0,0-1-.08h-.12a4.18,4.18,0,0,0-.92.19,4.58,4.58,0,0,0-1.68,1.07c-.1.1-.2.2-.29.31a5,5,0,0,0-.65,1,6.26,6.26,0,0,0-.41.95C128.77,91.09,128.74,91.22,128.74,91.22Z" transform="translate(-23.22 -56.67)"/><path class="cls-18" d="M129.73,90.66c0,2.27.85,4.12,1.91,4.12s1.91-1.85,1.91-4.12a7.85,7.85,0,0,0-.34-2.34,4.83,4.83,0,0,0-.42-.94,4.18,4.18,0,0,0-.92.19,4.58,4.58,0,0,0-1.68,1.07c-.1.1-.2.2-.29.31a6.91,6.91,0,0,0-.15,1.17A4.87,4.87,0,0,0,129.73,90.66Z" transform="translate(-23.22 -56.67)"/><polygon class="cls-5" points="112.3 31.72 112.78 34.07 108.86 33.63 112.3 31.72"/><path class="cls-17" d="M129.29,88.3l.05-.06.13-.16a4.15,4.15,0,0,1,.55-.51,4.32,4.32,0,0,1,4.52-.61,4.24,4.24,0,0,1,.66.35l.17.12.06,0-.05-.06a1.55,1.55,0,0,0-.14-.15,2.79,2.79,0,0,0-.6-.5,3.48,3.48,0,0,0-1.06-.48,3.6,3.6,0,0,0-2.82.38,3.87,3.87,0,0,0-.9.74,3.07,3.07,0,0,0-.44.64,1.88,1.88,0,0,0-.1.19Z" transform="translate(-23.22 -56.67)"/><path class="cls-13" d="M114.9,98.6c-.26.71-2.22.64-4.38-.16s-3.67-2-3.4-2.75,2.22-.64,4.37.16S115.17,97.89,114.9,98.6Z" transform="translate(-23.22 -56.67)"/><path class="cls-13" d="M140.91,95.55c.29.7-1.19,2-3.31,2.87s-4.08,1-4.37.32,1.19-2,3.31-2.87S140.62,94.84,140.91,95.55Z" transform="translate(-23.22 -56.67)"/><path class="cls-13" d="M131.41,102.36l-.09.15a4.41,4.41,0,0,1-.31.38,5.27,5.27,0,0,1-1.46,1.09,14.73,14.73,0,0,1-2.48,1,13.61,13.61,0,0,1-3.24.61,11.15,11.15,0,0,1-3.33-.3,10.26,10.26,0,0,1-2.52-1,9,9,0,0,1-1.48-1c-.16-.14-.27-.26-.35-.34l-.12-.12.15.07.44.2a13.21,13.21,0,0,0,1.63.57,16.87,16.87,0,0,0,5.49.53,31.25,31.25,0,0,0,5.54-.88,6.66,6.66,0,0,0,1.59-.6,3.11,3.11,0,0,0,.4-.26Z" transform="translate(-23.22 -56.67)"/><path class="cls-13" d="M125.57,106.46l-.1.15a3.1,3.1,0,0,1-.33.36,2.92,2.92,0,0,1-3.06.54,2.74,2.74,0,0,1-.43-.22l-.15-.1s.26,0,.64,0a11,11,0,0,0,1.42-.18,11.91,11.91,0,0,0,1.4-.32C125.33,106.55,125.57,106.46,125.57,106.46Z" transform="translate(-23.22 -56.67)"/><path class="cls-18" d="M119,86.55l-.34-.22c-.22-.13-.52-.31-.89-.49A18,18,0,0,0,115,84.75a12,12,0,0,0-2.83-.62,5,5,0,0,0-1,0l-.39.07a1.86,1.86,0,0,1,.22-.35,3.14,3.14,0,0,1,.87-.78,4.66,4.66,0,0,1,3.76-.39,4.92,4.92,0,0,1,2.88,2.38,4.07,4.07,0,0,1,.4,1A2.89,2.89,0,0,1,119,86.55Z" transform="translate(-23.22 -56.67)"/><path class="cls-18" d="M135.45,81.7l-.39,0c-.25,0-.59.06-1,.13a15.77,15.77,0,0,0-2.71.73,11.23,11.23,0,0,0-2.48,1.21,6.3,6.3,0,0,0-.78.58l-.3.26s0-.14,0-.4a3.65,3.65,0,0,1,.22-1.08,4.11,4.11,0,0,1,.88-1.42,4.43,4.43,0,0,1,1.73-1.16,4.64,4.64,0,0,1,2.05-.24,4.69,4.69,0,0,1,1.58.46,4.29,4.29,0,0,1,.9.61C135.35,81.59,135.45,81.7,135.45,81.7Z" transform="translate(-23.22 -56.67)"/><path class="cls-18" d="M132,83.85a6.79,6.79,0,0,0-6.63,5.34,4,4,0,0,0-4,.06,6.79,6.79,0,1,0,.39,2.27,6.28,6.28,0,0,0-.12-1.24,4,4,0,0,1,1.62-.52,3,3,0,0,1,1.89.55l.06,0a2.71,2.71,0,0,0,0,.29A6.79,6.79,0,1,0,132,83.85Zm-17,13.54a5.88,5.88,0,1,1,5.87-5.87A5.88,5.88,0,0,1,114.93,97.39Zm17-.87a5.88,5.88,0,1,1,5.88-5.88A5.89,5.89,0,0,1,132,96.52Z" transform="translate(-23.22 -56.67)"/><path class="cls-18" d="M144.83,80.6a17.83,17.83,0,0,1-5.46,11.29c-.11-3.11-.24-6.3-1.48-9.15s-3.82-5.33-6.92-5.48l1.55,1.8a38.8,38.8,0,0,1-15-1l1.63,3.24a18,18,0,0,1-7.11-2.44,9.68,9.68,0,0,1-2.43-2.3,11.09,11.09,0,0,1-1.77-3.66,11.37,11.37,0,0,1-.41-3.42,9.23,9.23,0,0,1,2.34-6c4.88-5.24,9.21-5.37,12.81-4.88,6.72.91,19.32,8.11,21.45,14.56A18,18,0,0,1,144.83,80.6Z" transform="translate(-23.22 -56.67)"/><path class="cls-18" d="M113.14,68.55c-1.24.67-2.17,2.66-2.87,5.24-.24.88-.45,1.82-.64,2.81a115.22,115.22,0,0,0-1.49,17l-1.8-1.4s-1-2.45-2-5.52c-1.41-4.27-2.94-9.75-2.25-11.48s3.2-4,5.31-5.65c1.65-1.33,3-2.28,3-2.28Z" transform="translate(-23.22 -56.67)"/><path class="cls-19" d="M121.85,71.55,125.17,75a33.3,33.3,0,0,1-13.09-3.37l1.23,3.22-3-1.08-2.41-.85-.87-.31a38.36,38.36,0,0,1-.51,8.9,14.92,14.92,0,0,1-2.09,5.12c-.59-1.79-1.2-3.78-1.66-5.62-.64-2.57-1-4.85-.59-5.86a11.23,11.23,0,0,1,2.65-3.35c.85-.81,1.79-1.61,2.66-2.3,0-.3,0-.61.07-.91a9,9,0,0,1,2.27-5.09c4.88-5.24,9.21-5.37,12.81-4.88,6.39.86,18.09,7.42,21.06,13.6a9.66,9.66,0,0,1,.39,1,18,18,0,0,1,.78,7.4A30.66,30.66,0,0,0,121.85,71.55Z" transform="translate(-23.22 -56.67)"/><path class="cls-20" d="M104.79,71.82A16.79,16.79,0,0,1,102.73,81c-.64-2.57-1-4.85-.59-5.86A11.23,11.23,0,0,1,104.79,71.82Z" transform="translate(-23.22 -56.67)"/><path class="cls-20" d="M128.11,67.68l-16.68-2.24,1.7,2.27a28.16,28.16,0,0,1-5.61.9,9,9,0,0,1,2.27-5.09c4.88-5.24,9.21-5.37,12.81-4.88,6.39.86,18.09,7.42,21.06,13.6a54.35,54.35,0,0,0-19-8.06Z" transform="translate(-23.22 -56.67)"/><path class="cls-21" d="M111.89,437.54s-10.23,4.67-12.67,3.93-6.67-3-7.84-4.38,5-18.16,5-18.16h.06l12.17-1.5c.76,1.25,1.73,11.94,2.59,16.5C111.62,436,111.89,437.54,111.89,437.54Z" transform="translate(-23.22 -56.67)"/><path class="cls-22" d="M111.89,437.54s-10.23,4.67-12.67,3.93-6.67-3-7.84-4.38,5-18.16,5-18.16h.06c.25,1.23-.47,6.33-.28,7.44a9.79,9.79,0,0,0,3.08,5.93c2.07,1.76,4.94,2.23,7.65,2.2a17,17,0,0,0,4.31-.57C111.62,436,111.89,437.54,111.89,437.54Z" transform="translate(-23.22 -56.67)"/><path class="cls-21" d="M142.2,414.67s-6.35,19.41-5.72,22.58l.63,3.17s34.9,2.54,39,0c0,0,1-4.44-2.22-5.07s-9.52-1-12.37-2.54S150.75,422.66,153,417.9Z" transform="translate(-23.22 -56.67)"/><path class="cls-22" d="M173.91,435.35c-1.72-.35-4.39-.6-6.92-1a41,41,0,0,1-17.29,1c-5.48-1.14-9.08-5.5-10.56-10.64-1.53,5.28-3,11-2.66,12.6l.63,3.17s34.9,2.54,39,0C176.13,440.42,177.08,436,173.91,435.35Z" transform="translate(-23.22 -56.67)"/><path class="cls-7" d="M157.55,306.81s-12.37,17.59-53.29,2.09c0,0-15-21.24-9.4-27s26.81-42.67,28-44.76,26.65-20.37,26.65-20.37l10.1,35.53,3.83,43.36Z" transform="translate(-23.22 -56.67)"/><path class="cls-23" d="M154.94,263.89a105.41,105.41,0,0,1-42.91,0l.39-4.84,2.1-26.36,1.76-22-12-37.73L99,136.81l7.21-10.73,7.41-4.74L127,126.08l5.13-3.32,10,4.24,2.68,1.13,8.53,51.46-.17,4-2.27,53.35,3,20.06Z" transform="translate(-23.22 -56.67)"/><path class="cls-24" d="M153.91,257c-14.1.77-31.25,1.6-41.49,2.09l2.1-26.36c6.36,5.59,14.77,11.27,17.73,5.47,5-9.79,12.19-70.71,12.19-70.71l8.76,16.1-2.27,53.35Z" transform="translate(-23.22 -56.67)"/><polygon class="cls-25" points="99.24 74.75 102.58 79.32 105.67 163.92 115.49 172.97 123.55 163.02 108.87 78.25 110.06 74.75 103.77 69.41 99.24 74.75"/><polygon class="cls-24" points="118.94 70.33 117.65 83.33 105.32 76.2 96.92 85.74 83.03 69.42 90.45 64.68 103.77 69.42 108.91 66.1 118.94 70.33"/><polygon class="cls-23" points="109.43 64.68 118.95 70.25 114.19 78.25 103.77 69.41 109.43 64.68"/><polygon class="cls-23" points="103.77 69.41 95.32 79.36 83.03 69.41 90.1 62.78 103.77 69.41"/><path class="cls-26" d="M157.07,424.65l-24.08.93s-4.52-47-6.26-54.68,7.48-48.76,7.48-48.76l.94-41.57s-11.91,50.28-10.86,54.8-11.5,90.21-11.5,90.21H91.55a72,72,0,0,1-.58-9.42C90.72,390.43,96.86,338,96.86,338l6.56-19L110,266.87,113,242.38c15.23,6.13,40,.93,40,.93l4.72,49.27,2.93,30.6c-2.94,10.4-3.56,50-3.63,76.55C157,414.11,157.07,424.65,157.07,424.65Z" transform="translate(-23.22 -56.67)"/><path class="cls-8" d="M157.07,424.65l-24.08.93s-4.52-47-6.26-54.68,7.48-48.76,7.48-48.76l.94-41.57s-11.91,50.28-10.86,54.8-11.5,90.21-11.5,90.21H91.55a72,72,0,0,1-.58-9.42C101.71,406,119.83,379,119.12,313.45L110,266.87,113,242.38c15.23,6.13,40,.93,40,.93l4.72,49.27c-7.61,19.11-21.78,57.8-18.39,72.75,2.19,9.7,10.08,23.09,17.69,34.4C157,414.11,157.07,424.65,157.07,424.65Z" transform="translate(-23.22 -56.67)"/><path class="cls-10" d="M155.55,272.83c-1,.27-2.37.75-4.05,1.33-.84.29-1.75.6-2.72.9-.49.15-1,.29-1.51.41s-1,.28-1.59.37a35.73,35.73,0,0,1-7.16.69c-1,0-2,0-2.93-.12.11-.61.24-1.33.36-2.15.3-1.93.61-4.4.78-7.17a11.44,11.44,0,0,0,2.25-.68,12.3,12.3,0,0,0,3.32-2.08l.42-.39.2-.21.13-.14a1.54,1.54,0,0,0,.17-.19l.7-.82c.05,0,0-.07,0-.1l0-.11-.09-.22c-.07-.15-.13-.3-.2-.44s-.13-.3-.2-.46l-.05-.11,0-.07-.05-.12-.18-.51c-.11-.34-.23-.69-.33-1.05a47.06,47.06,0,0,1-1.31-7.82c-.11-1-.2-1.91-.28-2.51s-.12-.92-.12-.92-.09.32-.24.9-.34,1.43-.52,2.49a24.39,24.39,0,0,0-.36,3.78,16.24,16.24,0,0,0,.6,4.73c.11.41.26.81.41,1.21l.24.57.07.15,0,.06v0l0,.06.09.14s0,0,0,0v0h0l0,.05-.15.2-.31.39a17.31,17.31,0,0,1-2.51,2.45,16.8,16.8,0,0,1-1.63,1.14c.05-.91.09-1.85.11-2.82a79.48,79.48,0,0,0-.55-10.55c-.31-2.7-.64-4.36-.64-4.36s-.27,1.67-.54,4.37-.57,6.4-.65,10.5.1,7.82.28,10.52c0,.81.11,1.53.16,2.14-1.25-.12-2.45-.29-3.59-.51a36.92,36.92,0,0,1-5.8-1.62c-.41-.14-.78-.32-1.15-.46s-.72-.28-1-.44l-.89-.42c-.27-.13-.53-.24-.74-.37-.88-.48-1.39-.73-1.39-.73s.36.42,1,1.18c.17.19.38.38.61.59l.75.69a10.21,10.21,0,0,0,.9.75c.33.24.67.53,1.06.79a24.58,24.58,0,0,0,13.81,4.29,23.67,23.67,0,0,0,8-1.36c.6-.18,1.15-.46,1.69-.68s1.05-.49,1.53-.75c1-.51,1.81-1.05,2.57-1.54,1.51-1,2.68-1.86,3.5-2.43l1.29-.9S156.53,272.54,155.55,272.83Z" transform="translate(-23.22 -56.67)"/><path class="cls-9" d="M150.93,325.74s-10.46,19.73-4.81,24.61c0,0,9.25-3,9.66-11.38A17.77,17.77,0,0,0,150.93,325.74Z" transform="translate(-23.22 -56.67)"/><path class="cls-9" d="M103.58,332.53s-5.85,7.18-4.54,9.71,10.24,8.11,10.24,8.11S120,344.12,117.11,338,103.58,332.53,103.58,332.53Z" transform="translate(-23.22 -56.67)"/><path class="cls-12" d="M209.74,159.47q.07-.32.15-.6l.22-.45c.21-.39.42-.78.64-1.16h0a32.36,32.36,0,0,1,5.09-6.5c2.79-2.79,5.55-4.61,6.88-4.92,2.51-.57,12.17-5.53,12.23-4.67a4,4,0,0,1-2.2,3.49c-1.67.79-7.88,3.91-8,5.66s14.25-1.4,16.21-2.87c1.76-1.31,10.82-5,11.53-4.31.09.08,0,.24-.16.47-1.82,2.13-17.17,12.49-17.17,12.49s-7.41,2.32-13.59,4.57h0l-1.87.7-.78.29L218,162c-1.21.47-2.26.92-3,1.31l-3.82-2.8Z" transform="translate(-23.22 -56.67)"/><polygon class="cls-24" points="185.21 99.93 187.41 96.77 199.72 103.77 194.5 108.49 185.21 99.93"/><path class="cls-5" d="M221.69,162.91S204.28,193,194.3,196.38c-6.24,2.1-23.16-7.78-35-15.49l-.95-.62-1-.66h0c-6.11-4-10.44-7.22-10.44-7.22l-1.63-30.73,11.73-8,32.39,38.93,18.11-19.46,10.06,7Z" transform="translate(-23.22 -56.67)"/><path class="cls-6" d="M221.69,162.91S204.28,193,194.3,196.38c-6.24,2.1-23.16-7.78-35-15.49l-.95-.62.28-4.31s18.9,13.68,26.32,13.26,20-20.31,20-20.31,4.53,6.55,7.67,1.75a56.33,56.33,0,0,0,5-10.58Z" transform="translate(-23.22 -56.67)"/><path class="cls-7" d="M159.32,180.89l-1.95-1.28h0c0-.24,2.51-12.67,1.14-19.17C158.62,160.76,161.05,168.05,159.32,180.89Z" transform="translate(-23.22 -56.67)"/><path class="cls-7" d="M188.81,176.1s1.36,13-5.31,14.1C183.5,190.2,193.33,189.49,188.81,176.1Z" transform="translate(-23.22 -56.67)"/><path class="cls-5" d="M175.49,306.67a58.6,58.6,0,0,1-28.56,12.63L146.12,292l-1.63-55.11-5.18-81.13,3.41-10.85s-.67-14.21-.55-18L157,133.66s.73,53.55,0,71.49c-.4,10.63,5.43,41.24,10.64,66.09C171.79,290.72,175.49,306.67,175.49,306.67Z" transform="translate(-23.22 -56.67)"/><polygon class="cls-27" points="127.71 180.23 137.41 191.04 134.18 192.37 127.71 182.56 127.71 180.23"/><path class="cls-6" d="M175.49,306.67a58.6,58.6,0,0,1-28.56,12.63L146.12,292c3.13,1.4,7.37,2.24,11-.71,3.8-3.08,7.82-12.47,10.6-20.06C171.79,290.72,175.49,306.67,175.49,306.67Z" transform="translate(-23.22 -56.67)"/><path class="cls-5" d="M127.42,322.14S86.67,317.4,78,307.93c0,0,2.25-5.9,5.53-14.72,9.15-24.65,26.32-72.12,24.78-77.47-2.09-7.26-18.81-77-18.81-77l16.79-12.63,5.35,12.42,7.52,20.22,1.34,19.14s7.64,65.94,8.37,111.83C129,302.82,128.68,314.31,127.42,322.14Z" transform="translate(-23.22 -56.67)"/><polygon class="cls-27" points="90.78 182.56 77.12 197.12 78.43 200.07 95 182.02 90.78 182.56"/><path class="cls-6" d="M127.42,322.14S86.67,317.4,78,307.93c0,0,2.25-5.9,5.53-14.72,4.73,3.94,10.64,7.2,15.55,4.83A30.84,30.84,0,0,0,113,284.28s8.82,11.22,15.84,5.41C129,302.82,128.68,314.31,127.42,322.14Z" transform="translate(-23.22 -56.67)"/><path class="cls-7" d="M115.84,173.44a1.42,1.42,0,1,0,0,2.84A1.42,1.42,0,1,0,115.84,173.44Z" transform="translate(-23.22 -56.67)"/><path class="cls-7" d="M118.62,199.8a1.42,1.42,0,1,0,0,2.84A1.42,1.42,0,1,0,118.62,199.8Z" transform="translate(-23.22 -56.67)"/><path class="cls-7" d="M121.93,231.53a1.42,1.42,0,1,0,0,2.84A1.42,1.42,0,1,0,121.93,231.53Z" transform="translate(-23.22 -56.67)"/><path class="cls-7" d="M122.8,258.05a1.42,1.42,0,1,0,0,2.84A1.42,1.42,0,1,0,122.8,258.05Z" transform="translate(-23.22 -56.67)"/><path class="cls-7" d="M122.46,283.94a1.42,1.42,0,1,0,0,2.84A1.42,1.42,0,1,0,122.46,283.94Z" transform="translate(-23.22 -56.67)"/><polygon class="cls-5" points="71.7 156.27 75.82 160.97 65.66 172.97 33.15 145.18 38.81 133.53 62.17 85.41 72.96 76.99 77.5 85.2 78.43 110.45 74.58 116.67 74.58 116.67 73.28 118.77 59.01 141.79 71.7 156.27"/><polygon class="cls-7" points="74.58 116.67 74.58 116.67 73.28 118.77 70.39 106.66 74.58 116.67"/><path class="cls-6" d="M99,217.64l-10.16,12L56.37,201.85,62,190.2c0,5.28,1,10.14,4.18,12.82,6.36,5.4,20.33,8.49,28.71,9.92Z" transform="translate(-23.22 -56.67)"/><path class="cls-7" d="M79,198.85s-7.93-.58-12.22,1.53C66.79,200.38,70.62,196.22,79,198.85Z" transform="translate(-23.22 -56.67)"/><path class="cls-13" d="M100.63,219.27s5.64-4.68,7.2-3.18-2.67,5.66-2.67,5.66Z" transform="translate(-23.22 -56.67)"/><path class="cls-12" d="M118.71,224.11c-.52,1.58-10.95-3.24-10.95-3.24l-2.27,2.24,4.17,2.42,3.66,6s-.77,1.13-1.78,2.46l-.39.51a27.6,27.6,0,0,1-2,2.26l-.19.2a8.73,8.73,0,0,1-.93.8,2,2,0,0,1-.86.4l-3.8-3.95s-7.52.63-8.56.16c-.42-.19-1.52-1.85-2.7-3.78-.57-.93-1.15-1.92-1.69-2.84l2.19-2.58,4.94-5.84c.72-.22,1.67-.48,2.74-.73h0c.52-.12,1.08-.25,1.65-.36a23,23,0,0,1,6.07-.58,5.7,5.7,0,0,1,2,.46C113.66,219.85,119.24,222.53,118.71,224.11Z" transform="translate(-23.22 -56.67)"/><path class="cls-28" d="M109.2,236.76l-.19.2-.52-.72c-.48-.66-1.15-1.54-1.89-2.47a17.63,17.63,0,0,0-2.1-2.25l-.42-.36-.35-.25-.31-.23.39.08.45.1.56.22a7.14,7.14,0,0,1,2.71,2.07A8.41,8.41,0,0,1,109,236,7,7,0,0,1,109.2,236.76Z" transform="translate(-23.22 -56.67)"/><path class="cls-28" d="M111.54,234l-.39.51-.09-.11c-.48-.66-1.15-1.54-1.9-2.47a18.53,18.53,0,0,0-2.09-2.26l-.42-.35-.35-.25-.31-.23.38.08.45.1.57.22a7.14,7.14,0,0,1,2.71,2.07A8.3,8.3,0,0,1,111.54,234Z" transform="translate(-23.22 -56.67)"/><path class="cls-13" d="M108.08,237.76a2,2,0,0,1-.86.4l-3.8-3.95s-7.52.63-8.56.16c-.42-.19-1.52-1.85-2.7-3.78-.57-.93-1.15-1.92-1.69-2.84l2.19-2.58c.45.87.94,1.76,1.43,2.59,1.35,2.32,2.74,4.24,3.71,4.4,2.54.42,6.69.79,6.69.79Z" transform="translate(-23.22 -56.67)"/><polygon class="cls-24" points="77.12 161.93 77.12 161.93 70.87 171.09 68.94 173.92 68.3 174.86 66.51 171.96 67.26 171.08 69.44 168.5 74.39 162.66 75.02 161.91 77.12 161.93"/><path class="cls-29" d="M117.52,178.17a6.25,6.25,0,0,0-6.24-2.15c-2.22-6.21-4.32-12.15-5.15-18.74a73.66,73.66,0,0,1,.35-19.45c.13-.91-1.23-.94-1.4-.08-2.41,12.47-1.18,27.46,4.76,38.88a6.64,6.64,0,0,0-2.36,2.52c-2.77,5-.8,11.4,1.68,16.08,1.08,2.05,5.7,11.66,8.92,6.68.63-1-.73-2.11-1.42-1.14-1.27,1.8-4.06-3.49-4.33-4a37,37,0,0,1-2.75-5.4c-1.34-3.42-2.88-10.63,1.28-12.86,4.49-2.4,7.44,4.43,9.11,7.59a74.28,74.28,0,0,1,4.3,9.86l-1.1.5c-1.31.6-.53,2.71.79,2.11l2.11-1a1.15,1.15,0,0,0,.65-1.44C124.63,190.16,121.87,183,117.52,178.17Z" transform="translate(-23.22 -56.67)"/><path class="cls-29" d="M157,174.77a9.09,9.09,0,0,0-7.75-6.18,45.21,45.21,0,0,0-5.77-31.08c-.5-.83-1.75,0-1.26.8a43.41,43.41,0,0,1,5.07,30.29,9,9,0,0,0-1.8.41A9.1,9.1,0,1,0,157,174.77Z" transform="translate(-23.22 -56.67)"/><path class="cls-7" d="M152.85,176.14a4.75,4.75,0,1,1-6-3A4.75,4.75,0,0,1,152.85,176.14Z" transform="translate(-23.22 -56.67)"/><path class="cls-5" d="M148.57,181.36a2.59,2.59,0,0,0,2.06-.81c-1.47-.36-3-1.32-3.17-2.82-.14-1.16.26-2.58-1.35-2.53-1.14,0-1.54,1-1.6,1.94A4.26,4.26,0,0,0,148.57,181.36Z" transform="translate(-23.22 -56.67)"/><path class="cls-7" d="M142.17,126.92l8.38,2.32s-5.25,19.17-11.24,26.52Z" transform="translate(-23.22 -56.67)"/><path class="cls-7" d="M106.25,126.08l-14.39,7.58,27.26,25.06S117.39,138.29,106.25,126.08Z" transform="translate(-23.22 -56.67)"/></g></g></svg>